<svg xmlns="http://www.w3.org/2000/svg" width="251" height="44" viewBox="0 0 251 44" fill="none"><path d="M107.5 0.9H112.4L106.5 31.8C105.9 34.9 103.9 36.2 101.2 36.2C98.7 36.2 96.5 35 95.8 31.1L91.7 4.5C91.6 4 91.3 3.7 90.9 3.7C90.5 3.7 90.2 4 90.1 4.5L85.9 31.9C85.4 35 83.2 36.3 80.8 36.3C78.4 36.3 76.1 34.9 75.4 31.3L69.5 1H74.6L80.1 32.2C80.2 32.7 80.4 33 80.9 33C81.3 33 81.6 32.8 81.7 32.2L85.9 5.2C86.5 1.6 88.6 0.5 91 0.5C93.3 0.5 95.7 1.6 96.3 5.2L100.6 32.2C100.7 32.8 101 33.1 101.5 33.1C101.9 33.1 102.2 32.8 102.3 32.3L107.5 0.9Z" fill="#E6F4FF"></path><path d="M128.7 9.40015C134.9 9.40015 137.7 14.0001 137.7 20.0001V35.6001H133.3V21.1001C133.3 16.1001 131.7 13.2001 127.7 13.2001C123.9 13.2001 120.9 16.1001 120.9 21.6001V35.6001H116.5V0.900146H120.9V13.8001C122.1 11.3001 124.9 9.40015 128.7 9.40015Z" fill="#E6F4FF"></path><path fill-rule="evenodd" clip-rule="evenodd" d="M146.799 6.50005C144.999 6.50005 143.699 5.20005 143.699 3.40005C143.699 1.60005 144.999 0.300049 146.799 0.300049C148.599 0.300049 149.899 1.60005 149.899 3.40005C149.899 5.20005 148.599 6.50005 146.799 6.50005ZM150.399 32.1C149.699 32.1 149.399 31.8001 149.399 31.1V14.6C149.399 11.5 147.799 9.90005 144.299 9.90005H140.699V13.5H144.199C144.899 13.5 145.199 13.8 145.199 14.5V30.9C145.199 34 146.799 35.6001 150.299 35.6001H154.099V32.1H150.399Z" fill="#E6F4FF"></path><path d="M166.7 13.1001C163.3 13.1001 161.3 14.9001 161.3 16.7001C161.3 18.3001 162.4 19.5001 164.9 19.9001L170 20.8001C173.9 21.5001 177.7 23.3001 177.7 28.1001C177.7 33.2001 173.1 36.2001 167 36.2001C160.4 36.2001 156.3 32.0001 156.1 27.3001H160.7C161.2 30.6001 163.4 32.6001 167.3 32.6001C171.1 32.6001 173.3 30.8001 173.3 28.2001C173.3 26.1001 171.9 25.1001 168.9 24.6001L164 23.7001C159.8 23.0001 156.9 20.6001 156.9 16.9001C156.9 12.0001 161.5 9.40015 167.1 9.40015C172.4 9.40015 176.7 12.5001 177.3 17.4001H172.8C172.2 14.7001 170.1 13.1001 166.7 13.1001Z" fill="#E6F4FF"></path><path fill-rule="evenodd" clip-rule="evenodd" d="M194.601 9.40015C190.501 9.40015 187.801 11.2001 186.201 13.7001V9.90015H181.801V43.9001H186.201V31.9001C187.801 34.4001 190.501 36.2001 194.601 36.2001C200.501 36.2001 205.601 31.3001 205.601 22.8001C205.601 14.3001 200.501 9.40015 194.601 9.40015ZM201.001 22.8001C201.001 28.9001 197.901 32.2001 193.501 32.2001C189.601 32.2001 186.001 29.6001 186.001 22.8001C186.001 16.0001 189.601 13.4001 193.501 13.4001C197.901 13.4001 201.001 16.7001 201.001 22.8001Z" fill="#E6F4FF"></path><path fill-rule="evenodd" clip-rule="evenodd" d="M228.1 28.1C227.1 30.7 224.9 32.4 221.4 32.4C217.6 32.4 214 29.9 213.6 24.6H228.2C231.3 24.6 233.3 23.5 233.3 20.5C233.3 15 228.5 9.5 221.4 9.5C214 9.5 209 14.7 209 22.8C209 30.4 213.4 36.2 221.3 36.2C227.4 36.2 231.3 32.5 232.7 28.1H228.1ZM227.9 21H213.7C214 16.4 216.8 13.2 221.4 13.2C226.1 13.2 229 17.2 229 20.2C229 20.8 228.5 21 227.9 21Z" fill="#E6F4FF"></path><path d="M250.1 13.7C244.2 13.7 242 16.5 242 21.3V35.5H237.6V9.9H241.9V14.4C243 11.7 245.3 9.5 249.5 9.5C250 9.5 250.2 9.5 250.8 9.5V13.8H250.1V13.7Z" fill="#E6F4FF"></path><circle cx="14.4" cy="32.3001" r="3.9" fill="#E6F4FF"></circle><circle cx="34.6012" cy="32.3001" r="3.9" fill="#E6F4FF"></circle><circle cx="4.30039" cy="4.20005" r="3.9" fill="#E6F4FF"></circle><circle cx="24.4996" cy="4.20005" r="3.9" fill="#E6F4FF"></circle><circle cx="44.7008" cy="4.20005" r="3.9" fill="#E6F4FF"></circle></svg>